<svg xmlns="http://www.w3.org/2000/svg" version="1.1" xmlns:xlink="http://www.w3.org/1999/xlink" xmlns:svgjs="http://svgjs.dev/svgjs" width="1000" height="722" viewBox="0 0 1000 722"><g transform="matrix(1,0,0,1,-0.4573170731707705,0.1827848101266909)"><svg viewBox="0 0 328 237" data-background-color="#ffffff" preserveAspectRatio="xMidYMid meet" height="722" width="1000" xmlns="http://www.w3.org/2000/svg" xmlns:xlink="http://www.w3.org/1999/xlink"><g id="tight-bounds" transform="matrix(1,0,0,1,0.15001129150391534,-0.0596624755859807)"><svg viewBox="0 0 327.6999816894531 237.11965942382812" height="237.11965942382812" width="327.6999816894531"><g><svg></svg></g><g><svg viewBox="0 0 327.6999816894531 237.11965942382812" height="237.11965942382812" width="327.6999816894531"><g transform="matrix(1,0,0,1,-33.910011291503906,-10.080337524414062)"><path xmlns="http://www.w3.org/2000/svg" d="M33.91 237.12v-227.04h327.7v227.04h-61.547l0-5.961h55.587v-215.118h-315.78v215.118h55.587l0 5.961z" fill="#010c80" fill-rule="nonzero" stroke="none" stroke-width="1" stroke-linecap="butt" stroke-linejoin="miter" stroke-miterlimit="10" stroke-dasharray="" stroke-dashoffset="0" font-family="none" font-weight="none" font-size="none" text-anchor="none" style="mix-blend-mode: normal" data-fill-palette-color="tertiary"></path><g><path xmlns="http://www.w3.org/2000/svg" d="M119.215 247.2c-1.911 0-3.367-0.544-4.368-1.633-1.006-1.088-1.509-2.624-1.509-4.607v0-13.641c0-1.983 0.503-3.519 1.509-4.608 1.001-1.088 2.457-1.633 4.368-1.632v0c1.911 0 3.369 0.544 4.375 1.632 1.001 1.088 1.502 2.624 1.502 4.608v0 2.685h-3.773v-2.939c0-1.572-0.665-2.358-1.995-2.358v0c-1.33 0-1.995 0.786-1.995 2.358v0 14.185c0 1.548 0.665 2.322 1.995 2.322v0c1.33 0 1.995-0.774 1.995-2.322v0-3.882h3.773v3.592c0 1.983-0.501 3.519-1.502 4.607-1.006 1.088-2.465 1.633-4.375 1.633zM133.328 247.2c-1.959 0-3.459-0.556-4.499-1.669-1.04-1.113-1.56-2.685-1.56-4.716v0-13.351c0-2.032 0.52-3.604 1.56-4.716 1.04-1.113 2.54-1.669 4.499-1.669v0c1.959 0 3.459 0.556 4.499 1.669 1.04 1.113 1.56 2.685 1.56 4.716v0 13.351c0 2.032-0.52 3.604-1.56 4.716-1.04 1.113-2.54 1.669-4.499 1.669zM133.328 243.572c1.379 0 2.068-0.834 2.068-2.503v0-13.859c0-1.669-0.689-2.503-2.068-2.503v0c-1.379 0-2.068 0.834-2.068 2.503v0 13.859c0 1.669 0.689 2.503 2.068 2.503zM142.071 246.837v-25.395h5.007l3.882 15.201h0.072v-15.201h3.556v25.395h-4.1l-4.789-18.539h-0.072v18.539zM162.75 247.2c-1.935 0-3.398-0.551-4.389-1.654-0.992-1.098-1.487-2.675-1.488-4.731v0-1.451h3.773v1.741c0 1.645 0.689 2.467 2.068 2.467v0c0.677 0 1.192-0.201 1.546-0.602 0.348-0.397 0.522-1.042 0.522-1.937v0c0-1.064-0.242-2.003-0.726-2.816-0.484-0.808-1.379-1.78-2.684-2.917v0c-1.645-1.451-2.794-2.764-3.447-3.94-0.653-1.171-0.98-2.494-0.979-3.969v0c0-2.007 0.508-3.563 1.523-4.665 1.016-1.098 2.491-1.647 4.427-1.647v0c1.911 0 3.355 0.549 4.331 1.647 0.982 1.103 1.473 2.682 1.473 4.738v0 1.052h-3.773v-1.306c0-0.871-0.169-1.507-0.508-1.908-0.339-0.397-0.834-0.595-1.487-0.595v0c-1.33 0-1.995 0.81-1.996 2.431v0c0 0.919 0.249 1.778 0.748 2.575 0.493 0.798 1.393 1.766 2.699 2.903v0c1.669 1.451 2.818 2.769 3.447 3.954 0.629 1.185 0.943 2.576 0.943 4.172v0c0 2.08-0.515 3.676-1.546 4.789-1.026 1.113-2.518 1.669-4.477 1.669zM174.178 246.837v-21.767h-4.172v-3.628h12.335v3.628h-4.172v21.767zM184.264 246.837v-25.395h5.914c2.056 0 3.555 0.479 4.498 1.436 0.943 0.953 1.415 2.421 1.415 4.405v0 1.56c0 2.636-0.871 4.305-2.612 5.006v0 0.073c0.967 0.29 1.652 0.883 2.053 1.777 0.397 0.895 0.595 2.092 0.595 3.592v0 4.462c0 0.726 0.024 1.311 0.073 1.756 0.048 0.45 0.169 0.892 0.363 1.328v0h-4.064c-0.145-0.411-0.242-0.798-0.29-1.161-0.048-0.363-0.073-1.016-0.072-1.959v0-4.644c0-1.161-0.186-1.971-0.559-2.43-0.377-0.46-1.026-0.689-1.945-0.69v0h-1.378v10.884zM188.255 232.325h1.451c0.798 0 1.398-0.206 1.799-0.616 0.397-0.411 0.595-1.1 0.595-2.068v0-1.959c0-0.919-0.162-1.584-0.486-1.996-0.329-0.411-0.844-0.617-1.545-0.616v0h-1.814zM204.689 247.2c-1.935 0-3.41-0.551-4.426-1.654-1.016-1.098-1.524-2.675-1.523-4.731v0-19.373h3.99v19.663c0 0.871 0.177 1.5 0.53 1.887 0.348 0.387 0.849 0.58 1.502 0.58v0c0.653 0 1.156-0.193 1.509-0.58 0.348-0.387 0.522-1.016 0.523-1.887v0-19.663h3.845v19.373c0 2.056-0.508 3.633-1.524 4.731-1.016 1.103-2.491 1.654-4.426 1.654zM219.092 247.2c-1.911 0-3.367-0.544-4.368-1.633-1.006-1.088-1.509-2.624-1.509-4.607v0-13.641c0-1.983 0.503-3.519 1.509-4.608 1.001-1.088 2.457-1.633 4.368-1.632v0c1.911 0 3.367 0.544 4.368 1.632 1.006 1.088 1.509 2.624 1.51 4.608v0 2.685h-3.774v-2.939c0-1.572-0.665-2.358-1.995-2.358v0c-1.33 0-1.995 0.786-1.995 2.358v0 14.185c0 1.548 0.665 2.322 1.995 2.322v0c1.33 0 1.995-0.774 1.995-2.322v0-3.882h3.774v3.592c0 1.983-0.503 3.519-1.51 4.607-1.001 1.088-2.457 1.633-4.368 1.633zM230.484 246.837v-21.767h-4.172v-3.628h12.335v3.628h-4.172v21.767zM246.193 247.2c-1.959 0-3.459-0.556-4.499-1.669-1.04-1.113-1.56-2.685-1.56-4.716v0-13.351c0-2.032 0.52-3.604 1.56-4.716 1.04-1.113 2.54-1.669 4.499-1.669v0c1.959 0 3.459 0.556 4.499 1.669 1.04 1.113 1.56 2.685 1.56 4.716v0 13.351c0 2.032-0.52 3.604-1.56 4.716-1.04 1.113-2.54 1.669-4.499 1.669zM246.193 243.572c1.379 0 2.068-0.834 2.068-2.503v0-13.859c0-1.669-0.689-2.503-2.068-2.503v0c-1.379 0-2.068 0.834-2.068 2.503v0 13.859c0 1.669 0.689 2.503 2.068 2.503zM254.936 246.837v-25.395h5.914c2.056 0 3.555 0.479 4.498 1.436 0.943 0.953 1.415 2.421 1.415 4.405v0 1.56c0 2.636-0.871 4.305-2.612 5.006v0 0.073c0.967 0.29 1.652 0.883 2.054 1.777 0.397 0.895 0.595 2.092 0.595 3.592v0 4.462c0 0.726 0.024 1.311 0.072 1.756 0.048 0.45 0.169 0.892 0.363 1.328v0h-4.063c-0.145-0.411-0.242-0.798-0.291-1.161-0.048-0.363-0.073-1.016-0.072-1.959v0-4.644c0-1.161-0.186-1.971-0.559-2.43-0.377-0.46-1.026-0.689-1.944-0.69v0h-1.379v10.884zM258.927 232.325h1.451c0.798 0 1.398-0.206 1.8-0.616 0.397-0.411 0.595-1.1 0.595-2.068v0-1.959c0-0.919-0.162-1.584-0.487-1.996-0.329-0.411-0.844-0.617-1.545-0.616v0h-1.814zM268.505 246.837l4.136-25.395h5.405l4.136 25.395h-3.991l-0.725-5.043v0.073h-4.535l-0.726 4.97zM273.402 238.42h3.592l-1.778-12.552h-0.072z" fill="#010c80" fill-rule="nonzero" stroke="none" stroke-width="1" stroke-linecap="butt" stroke-linejoin="miter" stroke-miterlimit="10" stroke-dasharray="" stroke-dashoffset="0" font-family="none" font-weight="none" font-size="none" text-anchor="none" style="mix-blend-mode: normal" data-fill-palette-color="secondary"></path></g></g><g transform="matrix(1,0,0,1,25.626614461525293,32.03982971191407)"><svg viewBox="0 0 276.44675276640254 173.04" height="173.04" width="276.44675276640254"><g><svg viewBox="0 0 316.416 198.05848356723493" height="173.04" width="276.44675276640254"><g transform="matrix(1,0,0,1,0,122.40808855683991)"><svg viewBox="0 0 316.416 75.650395010395" height="75.650395010395" width="316.416"><g id="textblocktransform"><svg viewBox="0 0 316.416 75.650395010395" height="75.650395010395" width="316.416" id="textblock"><g><svg viewBox="0 0 316.416 75.650395010395" height="75.650395010395" width="316.416"><g transform="matrix(1,0,0,1,0,0)"><svg width="316.416" viewBox="0.20000000298023224 -38.599998474121094 192.38999938964844 46" height="75.650395010395" data-palette-color="#010c80"><path d="M3.95 7.4Q1.95 7.4 0.2 7.05L0.2 7.05 0.2 1.1Q1.45 1.35 2.8 1.35L2.8 1.35Q3.95 1.35 4.53 0.95 5.1 0.55 5.38-0.5 5.65-1.55 5.65-3.65L5.65-3.65 5.65-37.9 12.6-37.9 12.6-3.35Q12.6 1 11.85 3.28 11.1 5.55 9.28 6.48 7.45 7.4 3.95 7.4L3.95 7.4ZM28.85-5.7L46.2-5.7 46.2 0 21.9 0 21.9-37.9 45.95-37.9 45.95-32.2 28.85-32.2 28.85-21.9 43.45-21.9 43.45-16.2 28.85-16.2 28.85-5.7ZM75.5 0L66.6-14.85 60.8-14.85 60.8 0 53.85 0 53.85-37.9 68.2-37.9Q81.59-37.9 81.59-26.35L81.59-26.35Q81.59-22.05 79.6-19.3 77.6-16.55 73.65-15.5L73.65-15.5 83.25 0 75.5 0ZM60.8-31.95L60.8-20.8 68.2-20.8Q74.55-20.8 74.55-26.5L74.55-26.5Q74.55-29.35 72.97-30.65 71.4-31.95 68.2-31.95L68.2-31.95 60.8-31.95ZM101.79 0.85Q94.24 0.85 88.34-1.95L88.34-1.95 88.34-8.25Q94.39-5.1 101.79-5.1L101.79-5.1Q105.34-5.1 106.99-6.45 108.64-7.8 108.69-10.05L108.69-10.05Q108.69-12.25 107.17-13.35 105.64-14.45 102.34-15.35L102.34-15.35 98.94-16.3Q96.04-17.1 93.89-18.23 91.74-19.35 90.29-21.53 88.84-23.7 88.84-27.15L88.84-27.15Q88.84-32.75 92.19-35.68 95.54-38.6 101.64-38.6L101.64-38.6Q105.29-38.6 108.07-37.93 110.84-37.25 113.74-35.9L113.74-35.9 113.74-29.8Q108.29-32.65 101.64-32.65L101.64-32.65Q95.74-32.65 95.74-27.7L95.74-27.7Q95.79-25.5 97.12-24.45 98.44-23.4 101.69-22.55L101.69-22.55 105.14-21.6Q108.29-20.75 110.49-19.55 112.69-18.35 114.14-16.13 115.59-13.9 115.59-10.35L115.59-10.35Q115.54-5.15 111.87-2.15 108.19 0.85 101.79 0.85L101.79 0.85ZM148.59 0L145.24-9.35 129.99-9.35 126.64 0 119.64 0 133.39-38.35 141.79-38.35 155.59 0 148.59 0ZM132.14-15.4L143.09-15.4 137.59-30.8 132.14-15.4ZM185.64-37.9L192.59-37.9 192.59 0 184.79 0 168.64-26.6 168.64 0 161.69 0 161.69-37.9 169.54-37.9 185.64-11.3 185.64-37.9Z" opacity="1" transform="matrix(1,0,0,1,0,0)" fill="#010c80" class="wordmark-text-0" data-fill-palette-color="primary" id="text-0"></path></svg></g></svg></g></svg></g></svg></g><g transform="matrix(1,0,0,1,90.5812187778095,0)"><svg viewBox="0 0 135.253562444381 104.5488459043659" height="104.5488459043659" width="135.253562444381"><g><svg xmlns="http://www.w3.org/2000/svg" xmlns:xlink="http://www.w3.org/1999/xlink" version="1.1" x="8" y="0" viewBox="14.494999885559082 18.872108459472656 71.01099395751953 62.25489044189453" enable-background="new 0 0 100 100" xml:space="preserve" height="104.5488459043659" width="119.253562444381" class="icon-icon-0" data-fill-palette-color="accent" id="icon-0"><path fill="#010c80" d="M58.012 45.635H41.988v7.146h16.024V45.635zM48.852 55.086h-16.03v7.146h16.03V55.086L48.852 55.086zM51.148 62.232h16.029v-7.146H51.148V62.232L51.148 62.232zM69.477 73.98v7.146h16.029V73.98H69.477zM14.495 81.127h16.03V73.98h-16.03V81.127zM51.148 81.127h16.029V73.98H51.148V81.127L51.148 81.127zM32.822 81.127h16.03V73.98h-16.03V81.127zM41.988 71.678h16.024v-7.148H41.988V71.678zM39.685 64.529h-16.03v7.147h16.029L39.685 64.529 39.685 64.529zM60.314 71.678h16.029v-7.148H60.314V71.678zM43.426 40.861h12.571c2.985 0.178 4.394-1.889 3.14-4.596l-1.654-3.576 1.479-4.022-1.396-3.017-1.479 4.024-1.225-2.653c-1.26-2.707-3.744-2.971-5.535-0.578l-8.067 9.735C39.471 38.572 40.447 40.682 43.426 40.861zM59.798 27.646c0.313 0.686 1.13 0.987 1.824 0.662v0.004l7.983-3.695c1.511-0.7 2.166-2.492 1.471-3.995-0.7-1.515-2.492-2.167-4-1.472l-7.984 3.699c-0.693 0.317-0.986 1.133-0.669 1.828L59.798 27.646z" data-fill-palette-color="accent"></path></svg></g></svg></g><g><rect width="70.59659516101077" height="6.822230693245073" y="96.72661521112084" x="225.8347812221905" fill="#010c80" data-fill-palette-color="accent"></rect><rect width="70.59659516101077" height="6.822230693245073" y="96.72661521112084" x="19.98462361679873" fill="#010c80" data-fill-palette-color="accent"></rect><rect width="70.59659516101077" height="6.822230693245073" y="83.0821538246307" x="225.8347812221905" fill="#010c80" data-fill-palette-color="accent"></rect><rect width="70.59659516101077" height="6.822230693245073" y="83.0821538246307" x="19.98462361679873" fill="#010c80" data-fill-palette-color="accent"></rect></g></svg></g></svg></g></svg></g><defs></defs></svg><rect width="327.6999816894531" height="237.11965942382812" fill="none" stroke="none" visibility="hidden"></rect></g></svg></g></svg>